Patient4_TMGait_0pt5_02_right_22_GRF.mot
version=1
nRows=26
nColumns=19
inDegrees=no
endheader
time	F1x	F1y	F1z	M1x	M1y	M1z	F2x	F2y	F2z	M2x	M2y	M2z	EC1x	EC1y	EC1z	EC2x	EC2y	EC2z
28.66	12.1327	800.8943	71.3015	-290.7944	-45.3121	553.4708	-8.5162	13.043	1.3193	4.2008	4.2874	16.8284	-0.0592	0.0182	-0.0073	-0.0462	0.0165	0.9585
28.6728	12.0991	783.4555	68.782	-284.312	-42.5333	539.1074	-5.7964	9.1854	0.74479	3.0188	3.138	11.6039	-0.0592	0.0182	-0.0073	-0.0462	0.0165	0.9585
28.6856	12.2213	764.8282	66.3227	-277.2762	-39.8183	523.796	-3.5094	5.9775	0.32726	2.0264	2.065	7.2565	-0.0592	0.0182	-0.0073	-0.0462	0.0165	0.9585
28.6984	12.5248	746.4727	64.1181	-270.2372	-37.347	508.5883	-1.7787	3.588	0.046472	1.2852	1.188	4.0047	-0.0592	0.0182	-0.0073	-0.0462	0.0165	0.9585
28.7111	13.0404	729.7897	62.282	-263.7365	-35.2009	494.4328	-0.59896	1.9889	-0.12222	0.79128	0.5474	1.8153	-0.0592	0.0182	-0.0073	-0.0462	0.0165	0.9585
28.7239	13.8214	715.9699	60.8441	-258.2441	-33.3698	482.0758	0.10554	1.0475	-0.21847	0.50416	0.14285	0.52117	-0.0592	0.0182	-0.0073	-0.0462	0.0165	0.9585
28.7367	14.8962	705.8755	59.798	-254.1051	-31.8145	472.0351	0.44384	0.57287	-0.2701	0.36226	-0.063161	-0.12546	-0.0592	0.0182	-0.0073	-0.0462	0.0165	0.9585
28.7495	16.3109	699.9906	59.1082	-251.5197	-30.4691	464.5665	0.50704	0.36418	-0.30376	0.29723	-0.1094	-0.36964	-0.0592	0.0182	-0.0073	-0.0462	0.0165	0.9585
28.7623	18.0753	698.4428	58.7341	-250.5495	-29.2742	459.6948	0.39464	0.21573	-0.3367	0.23893	-0.042518	-0.46474	-0.0592	0.0182	-0.0073	-0.0462	0.0165	0.9585
28.7751	20.211	701.0539	58.6191	-251.1356	-28.1579	457.2641	0.16138	-0.049474	-0.38381	0.12228	0.10411	-0.60346	-0.0592	0.0182	-0.0073	-0.0462	0.0165	0.9585
28.7879	22.7338	707.3839	58.7212	-253.1141	-27.065	456.9712	-0.12469	-0.59358	-0.45148	-0.11096	0.29609	-0.95599	-0.0592	0.0182	-0.0073	-0.0462	0.0165	0.9585
28.8006	25.6216	716.7762	58.9962	-256.2323	-25.9588	458.412	-0.41666	-1.5431	-0.53942	-0.50834	0.50756	-1.6343	-0.0592	0.0182	-0.0073	-0.0462	0.0165	0.9585
28.8134	28.8155	728.3548	59.4188	-260.1526	-24.8332	461.068	-0.64814	-2.9812	-0.63334	-1.0991	0.69947	-2.719	-0.0592	0.0182	-0.0073	-0.0462	0.0165	0.9585
28.8262	32.2132	741.0887	59.9645	-264.4722	-23.7005	464.3913	-0.7442	-4.8894	-0.71105	-1.8758	0.82278	-4.1915	-0.0592	0.0182	-0.0073	-0.0462	0.0165	0.9585
28.839	35.6822	753.808	60.6003	-268.7387	-22.5781	467.7561	-0.60655	-7.1116	-0.73076	-2.7742	0.80011	-5.9303	-0.0592	0.0182	-0.0073	-0.0462	0.0165	0.9585
28.8518	39.067	765.302	61.2765	-272.49	-21.4842	470.5278	-0.10203	-9.2701	-0.64284	-3.6419	0.53621	-7.6432	-0.0592	0.0182	-0.0073	-0.0462	0.0165	0.9585
28.8646	42.2408	774.4008	61.926	-275.293	-20.4195	472.0839	0.91948	-10.684	-0.37487	-4.205	-0.087316	-8.7866	-0.0592	0.0182	-0.0073	-0.0462	0.0165	0.9585
28.8774	45.1154	780.1266	62.4643	-276.7969	-19.3752	471.904	2.6123	-10.298	0.15197	-4.039	-1.1872	-8.5083	-0.0592	0.0182	-0.0073	-0.0462	0.0165	0.9585
28.8901	47.6635	781.8156	62.7893	-276.7787	-18.3164	469.6169	5.087	-6.6241	1.0362	-2.5485	-2.8774	-5.602	-0.0592	0.0182	-0.0073	-0.0462	0.0165	0.9585
28.9029	49.9136	779.1786	62.8096	-275.1622	-17.2038	465.0568	8.3573	2.2048	2.3579	1.0138	-5.2178	1.4265	-0.0592	0.0182	-0.0073	-0.0462	0.0165	0.9585
28.9157	51.9273	772.2269	62.4428	-271.9872	-15.9892	458.2255	12.2365	18.3019	4.1574	7.492	-8.161	14.2837	-0.0592	0.0182	-0.0073	-0.0462	0.0165	0.9585
28.9285	53.7898	761.0885	61.6296	-267.3422	-14.633	449.1639	16.235	43.6903	6.371	17.6921	-11.4575	34.606	-0.0592	0.0182	-0.0073	-0.0462	0.0165	0.9585
28.9413	55.5415	745.7889	60.2802	-261.2837	-13.0793	437.8687	19.4038	79.7031	8.7782	32.138	-14.5557	63.4803	-0.0592	0.0182	-0.0073	-0.0462	0.0165	0.9585
28.9541	57.1765	726.051	58.2993	-253.7609	-11.2843	424.1615	20.275	126.1007	10.9093	50.7185	-16.4994	100.7469	-0.0592	0.0182	-0.0073	-0.0462	0.0165	0.9585
28.9669	58.5762	701.2663	55.5811	-244.5971	-9.2243	407.7203	17.1897	180.1922	12.0904	72.328	-16.103	144.2934	-0.0592	0.0182	-0.0073	-0.0462	0.0165	0.9585
28.9796	59.5051	670.6109	52.0824	-233.5279	-6.9499	388.1146	9.5744	236.5002	11.3789	94.7278	-12.3948	189.7615	-0.0592	0.0182	-0.0073	-0.0462	0.0165	0.9585
